# AST/ASF file generated using VICON BodyLanguage
# -----------------------------------------------
:version 1.10
:name VICON
:units
  mass 1.0
  length 0.45
  angle deg
:documentation
   .ast/.asf automatically generated from VICON data using
   VICON BodyBuilder and BodyLanguage model FoxedUp or BRILLIANT.MOD
:root
   order TX TY TZ RX RY RZ
   axis XYZ
   position 0 0 0  
   orientation 0 0 0 
:bonedata
  begin
     id 1 
     name lhipjoint
     direction 0.578396 -0.714046 0.394458 
     length 2.21935 
     axis 0 0 0  XYZ
  end
  begin
     id 2 
     name lfemur
     direction 0.34202 -0.939693 0  
     length 6.39105  
     axis 0 0 20  XYZ
    dof rx ry rz
    limits (-160.0 20.0)
           (-70.0 70.0)
           (-60.0 70.0)
  end
  begin
     id 3 
     name ltibia
     direction 0.34202 -0.939693 0   
     length 6.99037   
     axis 0 0 20   XYZ
    dof rx
    limits (-10.0 170.0)
  end
  begin
     id 4 
     name lfoot
     direction 0.0582372 -0.160005 0.985397   
     length 2.06111   
     axis -90 7.62852e-016 20   XYZ
    dof rx rz
    limits (-45.0 90.0)
           (-70.0 20.0)
  end
  begin
     id 5 
     name ltoes
     direction 1.53556e-011 -4.21875e-011 1   
     length 1.04074   
     axis -90 7.62852e-016 20   XYZ
    dof rx
    limits (-90.0 20.0)
  end
  begin
     id 6 
     name rhipjoint
     direction -0.558179 -0.726269 0.40121   
     length 2.182  
     axis 0 0 0  XYZ 
  end
  begin
     id 7 
     name rfemur
     direction -0.34202 -0.939693 0   
     length 6.51172   
     axis 0 0 -20   XYZ
    dof rx ry rz
    limits (-160.0 20.0)
           (-70.0 70.0)
           (-70.0 60.0)
  end
  begin
     id 8 
     name rtibia
     direction -0.34202 -0.939693 0   
     length 7.02607   
     axis 0 0 -20   XYZ
    dof rx
    limits (-10.0 170.0)
 end
 begin
     id 9 
     name rfoot
     direction -0.0788856 -0.216737 0.973038   
     length 1.96734  
     axis -90 -7.62852e-016 -20   XYZ
    dof rx rz
    limits (-45.0 90.0)
           (-20.0 70.0)
  end
  begin
     id 10 
     name rtoes
     direction -1.53567e-011 -4.21783e-011 1   
     length 0.990825   
     axis -90 -7.62852e-016 -20   XYZ
    dof rx
    limits (-90.0 20.0)
  end
  begin
     id 11 
     name lowerback
     direction 0.00668177 0.999323 -0.0361741   
     length 1.7655   
     axis 0 0 0   XYZ
    dof rx ry rz
    limits (-20.0 45.0)
           (-30.0 30.0)
           (-30.0 30.0)
  end
  begin
     id 12 
     name upperback
     direction -0.00222086 0.99851 0.0545167   
     length 1.74912   
     axis 0 0 0   XYZ
    dof rx ry rz
    limits (-20.0 45.0)
           (-30.0 30.0)
           (-30.0 30.0)
  end
  begin
     id 13 
     name thorax
     direction -0.00733971 0.997496 0.0703443   
     length 1.75715   
     axis 0 0 0   XYZ
    dof rx ry rz
    limits (-20.0 45.0)
           (-30.0 30.0)
           (-30.0 30.0)
  end
  begin
     id 14 
     name lowerneck
     direction 0.0279797 0.994795 0.0979765   
     length 1.46939   
     axis 0 0 0   XYZ
    dof rx ry rz
    limits (-20.0 45.0)
           (-30.0 30.0)
           (-30.0 30.0)
  end
  begin
     id 15 
     name upperneck
     direction 0.00339187 0.976776 -0.214238   
     length 1.48018   
     axis 0 0 0   XYZ
    dof rx ry rz
    limits (-20.0 45.0)
           (-30.0 30.0)
           (-30.0 30.0)
  end
  begin
     id 16
     name head
     direction -0.00263506 0.996603 -0.0823096  
     length 1.4976  
     axis 0 0 0   XYZ
    dof rx ry rz
    limits (-20.0 45.0)
           (-30.0 30.0)
           (-30.0 30.0)
  end
  begin
     id 17 
     name lclavicle
     direction 0.894044 0.44508 -0.0508781  
     length 3.03024  
     axis 0 0 0   XYZ
    dof ry rz
    limits (-20.0 10.0)
           (0.0 20.0)
  end
  begin
     id 18 
     name lhumerus
     direction 1 -4.48961e-011 -2.39475e-018   
     length 4.4661   
     axis 180 -30 -90   XYZ
    dof rx ry rz
    limits (-60.0 90.0)
           (-90.0 90.0)
           (-90.0 90.0)
  end
  begin
     id 19
     name lradius
     direction 1 -4.48961e-011 9.29328e-028   
     length 3.41414   
     axis 180 -30 -90   XYZ
    dof rx
    limits (-10.0 170.0)
  end
  begin
     id 20
     name lwrist
     direction 1 -4.48985e-011 1.53461e-026   
     length 1.70707   
     axis -1.09697e-014 90 90   XYZ
    dof ry
    limits (-180.0 0.0)
 end
  begin
     id 21 
     name lhand
     direction 1 -4.48966e-011 3.06923e-026   
     length 0.328298   
     axis -1.95843e-014 90 90   XYZ
    dof rx rz
    limits (-90.0 90.0)
           (-45.0 45.0)
  end
  begin
     id 22 
     name lfingers
     direction 1 -4.48893e-011 6.13845e-026   
     length 0.264682   
     axis -3.91686e-014 90 90   XYZ
    dof rx
    limits (0.0 90.0)
  end
  begin
     id 23
     name lthumb
     direction 0.707107 -6.34876e-011 0.707107   
     length 0.380032   
     axis -90 45 2.85299e-015   XYZ
    dof rx rz
    limits (-45.0 45.0)
           (-45.0 45.0)
  end
  begin
     id 24 
     name rclavicle
     direction -0.936955 0.347862 -0.0332887   
     length 3.26927  
     axis 0 0 0   XYZ 
    dof ry rz
    limits (-10.0 20.0)
           (-20.0 0.0)
  end
  begin
     id 25 
     name rhumerus
     direction -1 -4.4896e-011 1.78637e-018  
     length 4.40431   
     axis 180 30 90   XYZ
    dof rx ry rz
    limits (-90.0 60.0)
           (-90.0 90.0)
           (-90.0 90.0)
  end
  begin
     id 26 
     name rradius
     direction -1 -4.48955e-011 9.34036e-027   
     length 3.04688   
     axis 180 30 90   XYZ
    dof rx
    limits (-10.0 170.0)
  end
  begin
     id 27 
     name rwrist
     direction -1 -4.49011e-011 1.53461e-026   
     length 1.52344   
     axis -1.09697e-014 -90 -90   XYZ
    dof ry
    limits (-180.0 0.0)
  end
  begin
     id 28
     name rhand
     direction -1 -4.48834e-011 3.06923e-026   
     length 0.500489   
     axis -1.95843e-014 -90 -90   XYZ
    dof rx rz
    limits (-90.0 90.0)
           (-45.0 45.0)
  end
  begin
     id 29
     name rfingers
     direction -1 -4.48967e-011 6.13845e-026   
     length 0.403507   
     axis -3.91686e-014 -90 -90   XYZ
    dof rx
    limits (0.0 90.0)
  end
  begin
     id 30
     name rthumb
     direction -0.707107 -6.34826e-011 0.707107   
     length 0.579358   
     axis -90 -45 -2.85299e-015   XYZ
    dof rx rz
    limits (-45.0 45.0)
           (-45.0 45.0)
  end
:hierarchy
  begin
    root lhipjoint rhipjoint lowerback
    lhipjoint lfemur
    lfemur ltibia
    ltibia lfoot
    lfoot ltoes
    rhipjoint rfemur
    rfemur rtibia
    rtibia rfoot
    rfoot rtoes
    lowerback upperback
    upperback thorax
    thorax lowerneck lclavicle rclavicle
    lowerneck upperneck
    upperneck head
    lclavicle lhumerus
    lhumerus lradius
    lradius lwrist
    lwrist lhand lthumb
    lhand lfingers
    rclavicle rhumerus
    rhumerus rradius
    rradius rwrist
    rwrist rhand rthumb
    rhand rfingers
  end

#!OML:ASF H:\IndianDance\Patient Classification 1\Patient 1\Session 1\dancer.ASF
:FULLY-SPECIFIED
:DEGREES
868
root -3.21653 11.3339 11.0418 -174.027 9.30387 -184.579
lowerback 23.4441 -3.17851 -5.05798
upperback -2.21328 -5.99737 -3.4093
thorax -15.6773 -2.33228 1.07029
lowerneck -14.4357 -9.29318 -9.31829
upperneck 10.2559 -12.1649 10.6436
head 6.72432 -5.43008 3.60325
rclavicle -4.57205e-015 6.36111e-015
rhumerus 11.9869 57.643 -12.2386
rradius 85.7956
rwrist 5.84865
rhand -48.763 57.3618
rfingers 7.12502
rthumb -21.4014 388.524
lclavicle -4.57205e-015 6.36111e-015
lhumerus 64.1968 -62.5682 20.2824
lradius 87.8307
lwrist 18.8815
lhand -48.8358 -14.6537
lfingers 7.12502
lthumb -21.4713 -345.824
rfemur -436.677 -30.0836 383.038
rtibia 113.791
rfoot -12.931 3.91101
rtoes -5.18372
lfemur 114.699 131.245 161.871
ltibia 107.686
lfoot 2.23019 -32.818
ltoes -0.771102
869
root -3.19064 11.5112 11.0353 -173.886 9.81991 -185.017
lowerback 23.0851 -3.25641 -5.72035
upperback -2.32702 -6.28142 -3.59406
thorax -15.5459 -2.41018 1.30536
lowerneck -14.5967 -9.15658 -9.2422
upperneck 10.4656 -11.9901 10.5874
head 6.79224 -5.3381 3.58923
rclavicle -7.27552e-014 -5.96354e-014
rhumerus 12.7013 57.7581 -12.3824
rradius 84.9405
rwrist 5.93273
rhand -48.6634 57.8832
rfingers 7.12502
rthumb -21.3057 389.034
lclavicle -7.27552e-014 -5.96354e-014
lhumerus 64.961 -62.7532 21.5006
lradius 86.7612
lwrist 21.4585
lhand -47.2544 -11.1709
lfingers 7.12502
lthumb -19.9518 -342.175
rfemur -435.991 -29.3367 382.762
rtibia 112.195
rfoot -12.6877 3.11086
rtoes -4.42964
lfemur 116.423 131.464 162.864
ltibia 105.349
lfoot 5.0421 -33.6656
ltoes 0.636834
870
root -3.16293 11.6809 11.0288 -173.688 10.3559 -185.437
lowerback 22.6738 -3.34327 -6.43004
upperback -2.46579 -6.57879 -3.7549
thorax -15.4001 -2.4897 1.59149
lowerneck -14.799 -8.99624 -9.12388
upperneck 10.7032 -11.7851 10.4938
head 6.86827 -5.23105 3.55926
rclavicle 4.45278e-014 3.33958e-014
rhumerus 13.5021 57.8446 -12.4693
rradius 84.108
rwrist 6.16099
rhand -48.508 58.4006
rfingers 7.12502
rthumb -21.1565 389.535
lclavicle 4.45278e-014 3.33958e-014
lhumerus 65.5677 -62.9217 22.8245
lradius 85.738
lwrist 24.3491
lhand -45.5975 -7.83335
lfingers 7.12502
lthumb -18.3585 -338.68
rfemur -435.354 -28.5734 382.535
rtibia 110.551
rfoot -12.7665 2.22035
rtoes -3.80981
lfemur 118.196 131.747 163.983
ltibia 102.964
lfoot 6.48922 -33.9834
ltoes 1.18708
871
root -3.13389 11.8421 11.0219 -173.424 10.9052 -185.829
lowerback 22.1997 -3.43446 -7.16076
upperback -2.62733 -6.87286 -3.88409
thorax -15.2322 -2.5663 1.91525
lowerneck -15.0536 -8.82778 -8.99457
upperneck 10.9731 -11.5661 10.3728
head 6.96026 -5.11705 3.51881
rclavicle -2.56432e-014 7.95139e-015
rhumerus 14.3501 57.8982 -12.4849
rradius 83.3118
rwrist 6.49132
rhand -48.316 58.7705
rfingers 7.12502
rthumb -20.972 389.884
lclavicle -2.56432e-014 7.95139e-015
lhumerus 66.0394 -63.0738 24.287
lradius 84.7256
lwrist 27.4514
lhand -43.8038 -4.54004
lfingers 7.12502
lthumb -16.6323 -335.233
rfemur -434.747 -27.7791 382.346
rtibia 108.806
rfoot -13.16 1.3228
rtoes -3.20195
lfemur 120.006 132.122 165.205
ltibia 100.516
lfoot 5.85557 -33.5974
ltoes -0.0647041
872
root -3.10383 11.9939 11.0142 -173.095 11.4615 -186.184
lowerback 21.6611 -3.53527 -7.90055
upperback -2.81086 -7.16573 -3.983
thorax -15.0408 -2.64237 2.26775
lowerneck -15.3409 -8.64605 -8.83678
upperneck 11.2622 -11.3304 10.227
head 7.0598 -4.99472 3.46725
rclavicle -2.98177e-014 -7.95139e-015
rhumerus 15.2327 57.9298 -12.4387
rradius 82.5543
rwrist 6.85413
rhand -48.1198 59.0812
rfingers 7.12502
rthumb -20.7835 390.174
lclavicle -2.98177e-014 -7.95139e-015
lhumerus 66.3554 -63.1983 25.8904
lradius 83.7049
lwrist 30.6447
lhand -41.8049 -1.15314
lfingers 7.12502
lthumb -14.7072 -331.695
rfemur -434.127 -26.955 382.184
rtibia 106.94
rfoot -13.8732 0.467612
rtoes -2.81243
lfemur 121.857 132.602 166.524
ltibia 98.0064
lfoot 2.67743 -32.1822
ltoes -4.23442
873
root -3.07292 12.1361 11.0054 -172.707 12.0162 -186.493
lowerback 21.054 -3.64704 -8.63461
upperback -3.00973 -7.45239 -4.04967
thorax -14.8166 -2.71786 2.63984
lowerneck -15.6507 -8.45416 -8.64958
upperneck 11.5581 -11.0835 10.0628
head 7.16245 -4.86666 3.40628
rclavicle -1.42727e-013 -1.01778e-013
rhumerus 16.1549 57.9487 -12.3118
rradius 81.8387
rwrist 7.1692
rhand -47.8716 59.457
rfingers 7.12502
rthumb -20.545 390.524
lclavicle -1.42727e-013 -1.01778e-013
lhumerus 66.5134 -63.305 27.6599
lradius 82.6199
lwrist 33.7889
lhand -39.5315 2.30469
lfingers 7.12502
lthumb -12.5161 -328.09
rfemur -433.462 -26.1117 382.045
rtibia 104.947
rfoot -14.8387 -0.281688
rtoes -2.71751
lfemur 123.75 133.203 167.927
ltibia 95.4041
lfoot -2.60368 -29.0555
ltoes -11.3456
874
root -3.04122 12.2688 10.9953 -172.265 12.5584 -186.744
lowerback 20.3839 -3.77855 -9.32907
upperback -3.22042 -7.73602 -4.09677
thorax -14.5643 -2.79771 2.99885
lowerneck -15.9568 -8.25108 -8.42508
upperneck 11.8449 -10.8298 9.90165
head 7.26027 -4.73366 3.34196
rclavicle -4.79071e-014 -1.90833e-014
rhumerus 17.0752 57.9661 -12.1661
rradius 81.1613
rwrist 7.34837
rhand -47.5782 59.8242
rfingers 7.12502
rthumb -20.2631 390.861
lclavicle -4.79071e-014 -1.90833e-014
lhumerus 66.5328 -63.3962 29.5712
lradius 81.4267
lwrist 36.8252
lhand -36.9031 5.77585
lfingers 7.12502
lthumb -9.98117 -324.481
rfemur -432.726 -25.2732 381.93
rtibia 102.851
rfoot -15.9909 -0.870089
rtoes -2.94017
lfemur 125.697 133.94 169.413
ltibia 92.6575
lfoot -7.92621 -23.7336
ltoes -18.6044
